<svg xmlns="http://www.w3.org/2000/svg" viewBox="0 0 640 96" role="img" aria-label="NEXANDR">
  <title>NEXANDR</title>
  <defs>
    <linearGradient id="nx-x" x1="0" y1="0" x2="1" y2="1">
      <stop offset="0%" stop-color="#C4F04A"/>
      <stop offset="55%" stop-color="#7ED321"/>
      <stop offset="100%" stop-color="#0F7A56"/>
    </linearGradient>
  </defs>
  <g fill="none" stroke="currentColor" stroke-width="8" stroke-linecap="butt" stroke-linejoin="miter">
    <path d="M10 86V10l62 76V10"/>
    <path d="M106 10h52M106 48h44M106 86h52"/>
    <path d="M288 86l31-76 31 76"/>
    <path d="M384 86V10l62 76V10"/>
    <path d="M480 86V10h26q32 0 32 38t-32 38z"/>
    <path d="M572 86V10h32q26 0 26 22t-26 22h-32m32 0l26 32"/>
  </g>
  <g stroke="url(#nx-x)" stroke-width="9" fill="none" stroke-linecap="butt">
    <path d="M192 10l62 76M254 10l-62 76"/>
  </g>
  <rect x="106" y="6" width="26" height="8" fill="#7ED321"/>
</svg>
